<?xml version="1.0" encoding="utf-8" ?>
<svg xmlns="http://www.w3.org/2000/svg" xmlns:xlink="http://www.w3.org/1999/xlink" width="512" height="512">
	<path fill="#F4F1BB" d="M0 0L0 512L512 512L512 0L0 0Z"/>
	<path fill="#9BC1BC" d="M181.39 273.663L159.67 273.652C158.81 273.67 158.314 274.672 157.871 275.307C156.876 276.734 156.122 276.339 154.446 276.341L147.701 276.343C146.949 276.343 146.191 276.366 145.442 276.282L145.321 276.267C144.71 276.147 143.647 274.236 143.242 273.677L114.042 273.662L114.041 229.79C114.041 229.223 114.01 228.636 114.07 228.073C114.313 225.799 116.268 223.887 118.52 223.629L183.651 223.625C184.007 223.63 184.427 223.611 184.762 223.735C187.943 224.91 188.558 226.853 188.566 229.844L188.553 273.66L181.39 273.663ZM121.496 231.462L121.525 264.872C121.526 265.28 121.499 265.706 121.544 266.111L180.135 266.11C180.295 266.111 180.907 266.165 181.01 266.077L181.019 231.472L121.496 231.462Z"/>
	<path fill="#9BC1BC" d="M136.294 254.508L135.335 254.456C130.013 253.838 129.93 245.597 135.824 245.164C139.784 244.895 142.198 249.929 139.579 252.882C138.681 253.895 137.636 254.425 136.294 254.508Z"/>
	<path fill="#9BC1BC" d="M151.672 254.551C145.469 255.095 144.654 245.879 150.739 245.161C152.669 245.061 154.453 245.993 155.355 247.749C156.744 250.458 154.957 254.202 151.672 254.551Z"/>
	<path fill="#9BC1BC" d="M166.571 254.513C162.561 254.525 160.108 250.007 162.73 246.947C163.659 245.864 164.871 245.282 166.28 245.164C171.983 244.689 173.076 254.113 166.571 254.513Z"/>
	<path fill="#9BC1BC" d="M190.719 284.63C189.726 286.318 187.825 287.8 185.803 287.876L117.839 287.874C117.15 287.875 116.275 287.977 115.617 287.784C113.062 287.034 111.229 285.084 110.697 282.442C110.587 281.898 110.656 281.228 110.657 280.668L110.661 277.01L139.783 277.028C139.87 277.044 139.893 277.085 139.943 277.155C141.96 279.978 141.665 279.639 145.074 279.641L156.494 279.64C157.588 279.64 158.717 279.696 159.807 279.627C160.968 279.554 161.725 277.849 162.421 277.053C162.738 276.975 163.098 277.003 163.424 277.003L191.629 277.031C191.717 277.692 191.645 278.454 191.646 279.125L191.646 280.97C191.645 282.376 191.425 283.385 190.719 284.63Z"/>
	<path fill="#9BC1BC" d="M203.133 277.57L203.133 234L212.6 234C215.828 234 218.383 234.493 220.265 235.479C222.148 236.465 223.493 237.945 224.3 239.917C225.106 241.889 225.51 244.346 225.51 247.286L225.51 263.315C225.51 266.399 225.106 268.999 224.3 271.115C223.493 273.231 222.184 274.835 220.373 275.929C218.562 277.023 216.132 277.57 213.084 277.57L203.133 277.57ZM209.212 273.213L212.654 273.213C214.877 273.213 216.455 272.782 217.388 271.922C218.32 271.061 218.885 269.806 219.082 268.156C219.279 266.507 219.378 264.517 219.378 262.186L219.378 248.039C219.378 245.78 219.234 243.951 218.947 242.553C218.661 241.154 218.033 240.132 217.065 239.487C216.097 238.841 214.573 238.518 212.493 238.518L209.212 238.518L209.212 273.213ZM235.676 278C234.457 278 233.381 277.65 232.449 276.951C231.516 276.252 230.781 275.355 230.243 274.262C229.705 273.168 229.436 272.011 229.436 270.792C229.436 268.856 229.759 267.224 230.405 265.897C231.05 264.57 231.938 263.45 233.067 262.535C234.197 261.621 235.506 260.823 236.994 260.142C238.482 259.46 240.051 258.797 241.7 258.152L241.7 255.946C241.7 254.691 241.629 253.651 241.485 252.826C241.342 252.002 241.046 251.383 240.598 250.971C240.15 250.558 239.477 250.352 238.581 250.352C237.792 250.352 237.155 250.531 236.671 250.89C236.187 251.249 235.837 251.76 235.622 252.423C235.407 253.086 235.3 253.866 235.3 254.763L235.3 256.323L229.598 256.108C229.67 252.665 230.458 250.128 231.965 248.496C233.471 246.865 235.802 246.049 238.957 246.049C242.041 246.049 244.229 246.892 245.52 248.577C246.811 250.262 247.456 252.701 247.456 255.892L247.456 270.093C247.456 271.061 247.483 271.993 247.537 272.89C247.59 273.786 247.662 274.62 247.752 275.391C247.842 276.162 247.922 276.888 247.994 277.57L242.723 277.57C242.615 276.996 242.48 276.27 242.319 275.391C242.158 274.513 242.041 273.715 241.969 272.998C241.611 274.217 240.921 275.355 239.899 276.413C238.877 277.471 237.469 278 235.676 278ZM237.935 273.051C238.509 273.051 239.047 272.89 239.549 272.567C240.051 272.244 240.499 271.877 240.894 271.465C241.288 271.052 241.557 270.72 241.7 270.469L241.7 261.648C240.804 262.15 239.961 262.652 239.172 263.154C238.383 263.656 237.693 264.185 237.101 264.741C236.51 265.297 236.044 265.924 235.703 266.623C235.362 267.323 235.192 268.121 235.192 269.017C235.192 270.272 235.425 271.258 235.891 271.976C236.357 272.693 237.039 273.051 237.935 273.051ZM252.996 277.57L252.996 246.479L258.752 246.479L258.752 249.545C259.792 248.577 260.939 247.752 262.194 247.071C263.449 246.39 264.83 246.049 266.336 246.049C267.591 246.049 268.551 246.372 269.214 247.017C269.877 247.663 270.344 248.469 270.612 249.438C270.881 250.406 271.016 251.392 271.016 252.396L271.016 277.57L265.26 277.57L265.26 254.064C265.26 252.952 265.099 252.091 264.776 251.482C264.454 250.872 263.79 250.567 262.786 250.567C262.141 250.567 261.468 250.755 260.769 251.132C260.07 251.509 259.397 251.966 258.752 252.504L258.752 277.57L252.996 277.57ZM289.304 277.57L290.111 234L296.082 234L303.774 269.34L311.52 234L317.436 234L318.243 277.57L313.348 277.57L312.864 245.941L305.495 277.57L302.053 277.57L294.737 245.941L294.253 277.57L289.304 277.57ZM332.982 278C330.686 278 328.876 277.534 327.549 276.601C326.222 275.669 325.281 274.342 324.725 272.621C324.169 270.9 323.891 268.874 323.891 266.543L323.891 257.506C323.891 255.175 324.169 253.149 324.725 251.428C325.281 249.707 326.222 248.38 327.549 247.447C328.876 246.515 330.686 246.049 332.982 246.049C335.277 246.049 337.079 246.515 338.388 247.447C339.696 248.38 340.629 249.707 341.185 251.428C341.74 253.149 342.018 255.175 342.018 257.506L342.018 266.543C342.018 268.874 341.74 270.9 341.185 272.621C340.629 274.342 339.696 275.669 338.388 276.601C337.079 277.534 335.277 278 332.982 278ZM332.982 273.751C334.093 273.751 334.873 273.428 335.322 272.782C335.77 272.137 336.039 271.285 336.128 270.227C336.218 269.169 336.263 268.067 336.263 266.919L336.263 257.183C336.263 256 336.218 254.888 336.128 253.848C336.039 252.808 335.77 251.957 335.322 251.293C334.873 250.63 334.093 250.298 332.982 250.298C331.87 250.298 331.081 250.63 330.615 251.293C330.149 251.957 329.871 252.808 329.781 253.848C329.691 254.888 329.647 256 329.647 257.183L329.647 266.919C329.647 268.067 329.691 269.169 329.781 270.227C329.871 271.285 330.149 272.137 330.615 272.782C331.081 273.428 331.87 273.751 332.982 273.751ZM355.842 278C353.547 278 351.737 277.534 350.41 276.601C349.083 275.669 348.141 274.342 347.586 272.621C347.03 270.9 346.752 268.874 346.752 266.543L346.752 257.506C346.752 255.175 347.03 253.149 347.586 251.428C348.141 249.707 349.083 248.38 350.41 247.447C351.737 246.515 353.547 246.049 355.842 246.049C358.138 246.049 359.939 246.515 361.248 247.447C362.557 248.38 363.49 249.707 364.045 251.428C364.601 253.149 364.879 255.175 364.879 257.506L364.879 266.543C364.879 268.874 364.601 270.9 364.045 272.621C363.49 274.342 362.557 275.669 361.248 276.601C359.939 277.534 358.138 278 355.842 278ZM355.842 273.751C356.954 273.751 357.734 273.428 358.182 272.782C358.63 272.137 358.899 271.285 358.989 270.227C359.079 269.169 359.123 268.067 359.123 266.919L359.123 257.183C359.123 256 359.079 254.888 358.989 253.848C358.899 252.808 358.63 251.957 358.182 251.293C357.734 250.63 356.954 250.298 355.842 250.298C354.73 250.298 353.942 250.63 353.476 251.293C353.009 251.957 352.732 252.808 352.642 253.848C352.552 254.888 352.507 256 352.507 257.183L352.507 266.919C352.507 268.067 352.552 269.169 352.642 270.227C352.732 271.285 353.009 272.137 353.476 272.782C353.942 273.428 354.73 273.751 355.842 273.751ZM374.83 278C373.611 278 372.535 277.65 371.603 276.951C370.671 276.252 369.935 275.355 369.397 274.262C368.859 273.168 368.59 272.011 368.59 270.792C368.59 268.856 368.913 267.224 369.559 265.897C370.204 264.57 371.092 263.45 372.221 262.535C373.351 261.621 374.66 260.823 376.148 260.142C377.636 259.46 379.205 258.797 380.855 258.152L380.855 255.946C380.855 254.691 380.783 253.651 380.639 252.826C380.496 252.002 380.2 251.383 379.752 250.971C379.304 250.558 378.631 250.352 377.735 250.352C376.946 250.352 376.309 250.531 375.825 250.89C375.341 251.249 374.991 251.76 374.776 252.423C374.561 253.086 374.454 253.866 374.454 254.763L374.454 256.323L368.752 256.108C368.823 252.665 369.612 250.128 371.119 248.496C372.625 246.865 374.955 246.049 378.111 246.049C381.195 246.049 383.383 246.892 384.674 248.577C385.965 250.262 386.61 252.701 386.61 255.892L386.61 270.093C386.61 271.061 386.637 271.993 386.691 272.89C386.744 273.786 386.816 274.62 386.906 275.391C386.996 276.162 387.076 276.888 387.148 277.57L381.877 277.57C381.769 276.996 381.634 276.27 381.473 275.391C381.312 274.513 381.195 273.715 381.123 272.998C380.765 274.217 380.075 275.355 379.053 276.413C378.031 277.471 376.623 278 374.83 278ZM377.089 273.051C377.663 273.051 378.201 272.89 378.703 272.567C379.205 272.244 379.653 271.877 380.048 271.465C380.442 271.052 380.711 270.72 380.855 270.469L380.855 261.648C379.958 262.15 379.116 262.652 378.326 263.154C377.537 263.656 376.847 264.185 376.256 264.741C375.664 265.297 375.197 265.924 374.857 266.623C374.516 267.323 374.346 268.121 374.346 269.017C374.346 270.272 374.579 271.258 375.045 271.976C375.512 272.693 376.193 273.051 377.089 273.051ZM392.312 277.57L392.312 246.479L398.067 246.479L398.067 250.89C399.215 248.989 400.362 247.716 401.51 247.071C402.657 246.425 403.805 246.103 404.952 246.103C405.096 246.103 405.23 246.103 405.356 246.103C405.481 246.103 405.652 246.121 405.867 246.156L405.867 252.504C405.436 252.324 404.943 252.172 404.388 252.046C403.832 251.921 403.267 251.858 402.693 251.858C401.796 251.858 400.981 252.064 400.246 252.477C399.51 252.889 398.784 253.687 398.067 254.87L398.067 277.57L392.312 277.57Z"/>
</svg>
