<?xml version="1.0" encoding="utf-8" ?>
<svg xmlns="http://www.w3.org/2000/svg" xmlns:xlink="http://www.w3.org/1999/xlink" width="32" height="32">
	<path fill="#FD004D" d="M415.125 360.512L325.668 360.497C323.139 360.497 304.872 360.163 304.042 360.665C301.658 362.107 293.564 376.155 288.625 377.129C286.605 377.527 284.085 377.257 282.01 377.259L240.801 377.254C237.226 377.251 225.022 378.23 222.283 376.384L222.01 376.189C216.657 372.581 214.078 365.711 208.739 361.817L208.418 361.589C207.301 360.762 206.493 360.689 205.144 360.616L39.4581 360.576L39.3675 123.072C39.3725 119.465 39.1457 115.644 39.5731 112.068C41.4017 96.768 55.0105 82.0752 70.6771 80.8298L80.6685 80.7541L425.531 80.7496C430.365 80.751 435.449 80.3956 440.243 80.8698C461.846 83.0065 472.718 99.4371 472.742 119.648L472.755 336.447C472.763 344.427 472.416 352.595 473.115 360.544L415.125 360.512ZM221.663 105.174L92.3902 105.184C87.5062 105.187 82.1977 104.782 77.3576 105.339C72.4626 105.902 66.1034 111.209 65.355 116.273C65 118.675 65.2003 121.313 65.1988 123.742L65.1987 337.139C65.209 337.665 65.1696 337.45 65.3165 337.882L85.4517 337.802L85.5688 128.479C85.5732 127.655 85.4458 124.606 85.8955 124.155L291.375 124.234L426.611 124.207L426.722 337.897L447.295 337.776C447.714 336.571 447.46 334.491 447.462 333.169L447.545 119.174C447.245 106.296 434.111 105.218 424.747 105.201L221.663 105.174ZM308.723 198.644L308.749 220.077C308.748 223.461 308.452 227.084 308.814 230.424L365.784 230.433L365.901 198.71L308.723 198.644ZM198.692 198.62L145.733 198.656L145.742 230.479C146.849 230.487 148.441 230.713 149.485 230.433L196.132 230.448C197.893 230.448 199.897 230.63 201.626 230.357L201.749 198.634L198.692 198.62ZM227.636 198.644L227.669 230.449L282.536 230.433L282.611 198.693L227.636 198.644ZM357.943 251.116L308.771 251.328L308.788 284.064L316.125 284.032L365.826 283.941L365.857 251.24C363.261 250.943 360.553 251.034 357.943 251.116ZM145.734 251.298L145.739 280.996C145.738 281.973 145.62 283.062 145.881 284.006L201.946 284.032L201.683 254.291C201.68 253.355 201.815 252.173 201.542 251.284L145.734 251.298ZM227.736 251.298L227.737 283.997L282.669 284.136L282.624 251.377L227.736 251.298Z"/>
	<path fill="#FD004D" d="M182.625 428.272L52.2579 428.221C39.4334 427.427 28.1011 415.507 25.7063 403.238C24.7169 398.169 25.0921 389.802 25.4709 384.629L190.895 384.627C192.046 384.61 193.528 384.419 194.646 384.653C198.03 385.362 196.51 394.258 210.884 394.261L300.071 394.287C311.197 394.49 311.593 393.3 319.048 384.261L486.559 385.091L486.535 396.652C486.5 399.351 486.51 402.453 485.811 405.074L484.385 409.493C480.054 420.071 470.744 427.784 459.157 428.217L182.625 428.272Z"/>
</svg>
